ISO-10303-21;
HEADER;
/* Generated by software containing ST-Developer
 * from STEP Tools, Inc. (www.steptools.com) 
 */
/* OPTION: using custom renumber hook */

FILE_DESCRIPTION(
/* description */ ('STEP AP242 Edition 2',
'CAx-IF Rec.Pracs.---Representation and Presentation of Product Manufa
cturing Information (PMI)---4.0---2014-10-13',
'CAx-IF Rec.Pracs.---3D Tessellated Geometry---0.4---2014-09-14','2;1',
'CAx-IF Rec.Pracs.---User Defined Attributes---1.5---2016-08-15'),
/* implementation_level */ '2;1');

FILE_NAME(
/* name */ 'Assembly - blade',
/* time_stamp */ '2026-07-30T06:51:53Z',
/* author */ (''),
/* organization */ (''),
/* preprocessor_version */ 'ST-DEVELOPER v20',
/* originating_system */ 'ONSHAPE BY PTC INC, 1.218',
/* authorisation */ '  ');

FILE_SCHEMA (('AP242_MANAGED_MODEL_BASED_3D_ENGINEERING_MIM_LF { 1 0 10303 442 3 1 4 }'));
ENDSEC;

DATA;
#10=SHAPE_REPRESENTATION_RELATIONSHIP('','',#247,#11);
#11=ADVANCED_BREP_SHAPE_REPRESENTATION('',(#245),#423);
#12=PLANE('',#252);
#13=PLANE('',#271);
#14=PLANE('',#275);
#15=PLANE('',#277);
#16=LINE('',#361,#28);
#17=LINE('',#365,#29);
#18=LINE('',#367,#30);
#19=LINE('',#369,#31);
#20=LINE('',#371,#32);
#21=LINE('',#375,#33);
#22=LINE('',#381,#34);
#23=LINE('',#388,#35);
#24=LINE('',#392,#36);
#25=LINE('',#396,#37);
#26=LINE('',#410,#38);
#27=LINE('',#411,#39);
#28=VECTOR('',#286,1.);
#29=VECTOR('',#289,1.);
#30=VECTOR('',#292,1.);
#31=VECTOR('',#293,1.);
#32=VECTOR('',#294,1.);
#33=VECTOR('',#299,1.);
#34=VECTOR('',#306,1.);
#35=VECTOR('',#313,1.);
#36=VECTOR('',#316,1.);
#37=VECTOR('',#321,1.);
#38=VECTOR('',#338,1.);
#39=VECTOR('',#339,1.);
#40=ORIENTED_EDGE('',*,*,#100,.F.);
#41=ORIENTED_EDGE('',*,*,#101,.F.);
#42=ORIENTED_EDGE('',*,*,#102,.T.);
#43=ORIENTED_EDGE('',*,*,#103,.T.);
#44=ORIENTED_EDGE('',*,*,#104,.F.);
#45=ORIENTED_EDGE('',*,*,#105,.F.);
#46=ORIENTED_EDGE('',*,*,#106,.T.);
#47=ORIENTED_EDGE('',*,*,#101,.T.);
#48=ORIENTED_EDGE('',*,*,#107,.T.);
#49=ORIENTED_EDGE('',*,*,#108,.F.);
#50=ORIENTED_EDGE('',*,*,#109,.F.);
#51=ORIENTED_EDGE('',*,*,#105,.T.);
#52=ORIENTED_EDGE('',*,*,#110,.T.);
#53=ORIENTED_EDGE('',*,*,#111,.T.);
#54=ORIENTED_EDGE('',*,*,#112,.F.);
#55=ORIENTED_EDGE('',*,*,#108,.T.);
#56=ORIENTED_EDGE('',*,*,#113,.T.);
#57=ORIENTED_EDGE('',*,*,#114,.T.);
#58=ORIENTED_EDGE('',*,*,#115,.F.);
#59=ORIENTED_EDGE('',*,*,#116,.F.);
#60=ORIENTED_EDGE('',*,*,#117,.T.);
#61=ORIENTED_EDGE('',*,*,#118,.F.);
#62=ORIENTED_EDGE('',*,*,#119,.F.);
#63=ORIENTED_EDGE('',*,*,#116,.T.);
#64=ORIENTED_EDGE('',*,*,#120,.T.);
#65=ORIENTED_EDGE('',*,*,#121,.F.);
#66=ORIENTED_EDGE('',*,*,#122,.T.);
#67=ORIENTED_EDGE('',*,*,#123,.F.);
#68=ORIENTED_EDGE('',*,*,#124,.T.);
#69=ORIENTED_EDGE('',*,*,#103,.F.);
#70=ORIENTED_EDGE('',*,*,#125,.F.);
#71=ORIENTED_EDGE('',*,*,#118,.T.);
#72=ORIENTED_EDGE('',*,*,#126,.T.);
#73=ORIENTED_EDGE('',*,*,#127,.F.);
#74=ORIENTED_EDGE('',*,*,#112,.T.);
#75=ORIENTED_EDGE('',*,*,#128,.T.);
#76=ORIENTED_EDGE('',*,*,#113,.F.);
#77=ORIENTED_EDGE('',*,*,#119,.T.);
#78=ORIENTED_EDGE('',*,*,#125,.T.);
#79=ORIENTED_EDGE('',*,*,#102,.F.);
#80=ORIENTED_EDGE('',*,*,#106,.F.);
#81=ORIENTED_EDGE('',*,*,#109,.T.);
#82=ORIENTED_EDGE('',*,*,#122,.F.);
#83=ORIENTED_EDGE('',*,*,#120,.F.);
#84=ORIENTED_EDGE('',*,*,#126,.F.);
#85=ORIENTED_EDGE('',*,*,#115,.T.);
#86=ORIENTED_EDGE('',*,*,#129,.T.);
#87=ORIENTED_EDGE('',*,*,#110,.F.);
#88=ORIENTED_EDGE('',*,*,#107,.F.);
#89=ORIENTED_EDGE('',*,*,#104,.T.);
#90=ORIENTED_EDGE('',*,*,#100,.T.);
#91=ORIENTED_EDGE('',*,*,#124,.F.);
#92=ORIENTED_EDGE('',*,*,#117,.F.);
#93=ORIENTED_EDGE('',*,*,#123,.T.);
#94=ORIENTED_EDGE('',*,*,#121,.T.);
#95=ORIENTED_EDGE('',*,*,#127,.T.);
#96=ORIENTED_EDGE('',*,*,#128,.F.);
#97=ORIENTED_EDGE('',*,*,#111,.F.);
#98=ORIENTED_EDGE('',*,*,#129,.F.);
#99=ORIENTED_EDGE('',*,*,#114,.F.);
#100=EDGE_CURVE('',#130,#131,#152,.T.);
#101=EDGE_CURVE('',#132,#130,#16,.T.);
#102=EDGE_CURVE('',#132,#133,#153,.T.);
#103=EDGE_CURVE('',#133,#131,#17,.T.);
#104=EDGE_CURVE('',#134,#130,#18,.T.);
#105=EDGE_CURVE('',#135,#134,#19,.T.);
#106=EDGE_CURVE('',#135,#132,#20,.T.);
#107=EDGE_CURVE('',#134,#136,#154,.T.);
#108=EDGE_CURVE('',#137,#136,#21,.T.);
#109=EDGE_CURVE('',#135,#137,#155,.T.);
#110=EDGE_CURVE('',#136,#138,#156,.T.);
#111=EDGE_CURVE('',#138,#139,#22,.F.);
#112=EDGE_CURVE('',#137,#139,#157,.T.);
#113=EDGE_CURVE('',#140,#141,#158,.T.);
#114=EDGE_CURVE('',#141,#142,#23,.T.);
#115=EDGE_CURVE('',#143,#142,#159,.T.);
#116=EDGE_CURVE('',#140,#143,#24,.T.);
#117=EDGE_CURVE('',#143,#144,#160,.T.);
#118=EDGE_CURVE('',#145,#144,#25,.T.);
#119=EDGE_CURVE('',#140,#145,#161,.T.);
#120=EDGE_CURVE('',#146,#146,#162,.T.);
#121=EDGE_CURVE('',#147,#147,#163,.T.);
#122=EDGE_CURVE('',#148,#148,#164,.T.);
#123=EDGE_CURVE('',#149,#149,#165,.T.);
#124=EDGE_CURVE('',#144,#131,#26,.T.);
#125=EDGE_CURVE('',#145,#133,#27,.T.);
#126=EDGE_CURVE('',#150,#150,#166,.T.);
#127=EDGE_CURVE('',#151,#151,#167,.T.);
#128=EDGE_CURVE('',#139,#141,#168,.T.);
#129=EDGE_CURVE('',#142,#138,#169,.F.);
#130=VERTEX_POINT('',#359);
#131=VERTEX_POINT('',#360);
#132=VERTEX_POINT('',#362);
#133=VERTEX_POINT('',#364);
#134=VERTEX_POINT('',#368);
#135=VERTEX_POINT('',#370);
#136=VERTEX_POINT('',#374);
#137=VERTEX_POINT('',#376);
#138=VERTEX_POINT('',#380);
#139=VERTEX_POINT('',#382);
#140=VERTEX_POINT('',#386);
#141=VERTEX_POINT('',#387);
#142=VERTEX_POINT('',#389);
#143=VERTEX_POINT('',#391);
#144=VERTEX_POINT('',#395);
#145=VERTEX_POINT('',#397);
#146=VERTEX_POINT('',#401);
#147=VERTEX_POINT('',#403);
#148=VERTEX_POINT('',#406);
#149=VERTEX_POINT('',#408);
#150=VERTEX_POINT('',#414);
#151=VERTEX_POINT('',#416);
#152=CIRCLE('',#250,0.05588);
#153=CIRCLE('',#251,0.05588);
#154=CIRCLE('',#254,0.0635);
#155=CIRCLE('',#255,0.0635);
#156=CIRCLE('',#257,0.0381);
#157=CIRCLE('',#258,0.0381);
#158=CIRCLE('',#260,0.0254);
#159=CIRCLE('',#261,0.0254);
#160=CIRCLE('',#263,0.0635);
#161=CIRCLE('',#264,0.0635);
#162=CIRCLE('',#266,0.0017);
#163=CIRCLE('',#267,0.0017);
#164=CIRCLE('',#269,0.0017);
#165=CIRCLE('',#270,0.0017);
#166=CIRCLE('',#273,0.0017);
#167=CIRCLE('',#274,0.0017);
#168=CIRCLE('',#276,0.000396875);
#169=CIRCLE('',#278,0.000396875);
#170=EDGE_LOOP('',(#40,#41,#42,#43));
#171=EDGE_LOOP('',(#44,#45,#46,#47));
#172=EDGE_LOOP('',(#48,#49,#50,#51));
#173=EDGE_LOOP('',(#52,#53,#54,#55));
#174=EDGE_LOOP('',(#56,#57,#58,#59));
#175=EDGE_LOOP('',(#60,#61,#62,#63));
#176=EDGE_LOOP('',(#64));
#177=EDGE_LOOP('',(#65));
#178=EDGE_LOOP('',(#66));
#179=EDGE_LOOP('',(#67));
#180=EDGE_LOOP('',(#68,#69,#70,#71));
#181=EDGE_LOOP('',(#72));
#182=EDGE_LOOP('',(#73));
#183=EDGE_LOOP('',(#74,#75,#76,#77,#78,#79,#80,#81));
#184=EDGE_LOOP('',(#82));
#185=EDGE_LOOP('',(#83));
#186=EDGE_LOOP('',(#84));
#187=EDGE_LOOP('',(#85,#86,#87,#88,#89,#90,#91,#92));
#188=EDGE_LOOP('',(#93));
#189=EDGE_LOOP('',(#94));
#190=EDGE_LOOP('',(#95));
#191=EDGE_LOOP('',(#96,#97,#98,#99));
#192=FACE_BOUND('',#170,.T.);
#193=FACE_BOUND('',#171,.T.);
#194=FACE_BOUND('',#172,.T.);
#195=FACE_BOUND('',#173,.T.);
#196=FACE_BOUND('',#174,.T.);
#197=FACE_BOUND('',#175,.T.);
#198=FACE_BOUND('',#176,.T.);
#199=FACE_BOUND('',#177,.T.);
#200=FACE_BOUND('',#178,.T.);
#201=FACE_BOUND('',#179,.T.);
#202=FACE_BOUND('',#180,.T.);
#203=FACE_BOUND('',#181,.T.);
#204=FACE_BOUND('',#182,.T.);
#205=FACE_BOUND('',#183,.T.);
#206=FACE_BOUND('',#184,.T.);
#207=FACE_BOUND('',#185,.T.);
#208=FACE_BOUND('',#186,.T.);
#209=FACE_BOUND('',#187,.T.);
#210=FACE_BOUND('',#188,.T.);
#211=FACE_BOUND('',#189,.T.);
#212=FACE_BOUND('',#190,.T.);
#213=FACE_BOUND('',#191,.T.);
#214=CYLINDRICAL_SURFACE('',#249,0.05588);
#215=CYLINDRICAL_SURFACE('',#253,0.0635);
#216=CYLINDRICAL_SURFACE('',#256,0.0381);
#217=CYLINDRICAL_SURFACE('',#259,0.0254);
#218=CYLINDRICAL_SURFACE('',#262,0.0635);
#219=CYLINDRICAL_SURFACE('',#265,0.0017);
#220=CYLINDRICAL_SURFACE('',#268,0.0017);
#221=CYLINDRICAL_SURFACE('',#272,0.0017);
#222=CYLINDRICAL_SURFACE('',#279,0.000396875);
#223=ADVANCED_FACE('',(#192),#214,.F.);
#224=ADVANCED_FACE('',(#193),#12,.T.);
#225=ADVANCED_FACE('',(#194),#215,.T.);
#226=ADVANCED_FACE('',(#195),#216,.T.);
#227=ADVANCED_FACE('',(#196),#217,.F.);
#228=ADVANCED_FACE('',(#197),#218,.T.);
#229=ADVANCED_FACE('',(#198,#199),#219,.F.);
#230=ADVANCED_FACE('',(#200,#201),#220,.F.);
#231=ADVANCED_FACE('',(#202),#13,.F.);
#232=ADVANCED_FACE('',(#203,#204),#221,.F.);
#233=ADVANCED_FACE('',(#205,#206,#207,#208),#14,.T.);
#234=ADVANCED_FACE('',(#209,#210,#211,#212),#15,.F.);
#235=ADVANCED_FACE('',(#213),#222,.T.);
#236=CLOSED_SHELL('',(#223,#224,#225,#226,#227,#228,#229,#230,#231,#232,
#233,#234,#235));
#237=STYLED_ITEM('',(#238),#245);
#238=PRESENTATION_STYLE_ASSIGNMENT((#239));
#239=SURFACE_STYLE_USAGE(.BOTH.,#240);
#240=SURFACE_SIDE_STYLE('',(#241));
#241=SURFACE_STYLE_FILL_AREA(#242);
#242=FILL_AREA_STYLE('',(#243));
#243=FILL_AREA_STYLE_COLOUR('',#244);
#244=COLOUR_RGB('',0.917647058823529,0.917647058823529,0.917647058823529);
#245=MANIFOLD_SOLID_BREP('blade',#236);
#246=SHAPE_DEFINITION_REPRESENTATION(#428,#247);
#247=SHAPE_REPRESENTATION('blade',(#248),#423);
#248=AXIS2_PLACEMENT_3D('',#356,#280,#281);
#249=AXIS2_PLACEMENT_3D('',#357,#282,#283);
#250=AXIS2_PLACEMENT_3D('',#358,#284,#285);
#251=AXIS2_PLACEMENT_3D('',#363,#287,#288);
#252=AXIS2_PLACEMENT_3D('',#366,#290,#291);
#253=AXIS2_PLACEMENT_3D('',#372,#295,#296);
#254=AXIS2_PLACEMENT_3D('',#373,#297,#298);
#255=AXIS2_PLACEMENT_3D('',#377,#300,#301);
#256=AXIS2_PLACEMENT_3D('',#378,#302,#303);
#257=AXIS2_PLACEMENT_3D('',#379,#304,#305);
#258=AXIS2_PLACEMENT_3D('',#383,#307,#308);
#259=AXIS2_PLACEMENT_3D('',#384,#309,#310);
#260=AXIS2_PLACEMENT_3D('',#385,#311,#312);
#261=AXIS2_PLACEMENT_3D('',#390,#314,#315);
#262=AXIS2_PLACEMENT_3D('',#393,#317,#318);
#263=AXIS2_PLACEMENT_3D('',#394,#319,#320);
#264=AXIS2_PLACEMENT_3D('',#398,#322,#323);
#265=AXIS2_PLACEMENT_3D('',#399,#324,#325);
#266=AXIS2_PLACEMENT_3D('',#400,#326,#327);
#267=AXIS2_PLACEMENT_3D('',#402,#328,#329);
#268=AXIS2_PLACEMENT_3D('',#404,#330,#331);
#269=AXIS2_PLACEMENT_3D('',#405,#332,#333);
#270=AXIS2_PLACEMENT_3D('',#407,#334,#335);
#271=AXIS2_PLACEMENT_3D('',#409,#336,#337);
#272=AXIS2_PLACEMENT_3D('',#412,#340,#341);
#273=AXIS2_PLACEMENT_3D('',#413,#342,#343);
#274=AXIS2_PLACEMENT_3D('',#415,#344,#345);
#275=AXIS2_PLACEMENT_3D('',#417,#346,#347);
#276=AXIS2_PLACEMENT_3D('',#418,#348,#349);
#277=AXIS2_PLACEMENT_3D('',#419,#350,#351);
#278=AXIS2_PLACEMENT_3D('',#420,#352,#353);
#279=AXIS2_PLACEMENT_3D('',#421,#354,#355);
#280=DIRECTION('',(0.,0.,1.));
#281=DIRECTION('',(1.,0.,0.));
#282=DIRECTION('',(0.,0.,-1.));
#283=DIRECTION('',(-1.,0.,0.));
#284=DIRECTION('',(0.,0.,1.));
#285=DIRECTION('',(1.,0.,0.));
#286=DIRECTION('',(0.,0.,-1.));
#287=DIRECTION('',(0.,0.,1.));
#288=DIRECTION('',(1.,0.,0.));
#289=DIRECTION('',(0.,0.,-1.));
#290=DIRECTION('',(-0.577808184537517,-0.81617259319427,0.));
#291=DIRECTION('',(0.81617259319427,-0.577808184537517,0.));
#292=DIRECTION('',(-0.81617259319427,0.577808184537517,0.));
#293=DIRECTION('',(0.,0.,-1.));
#294=DIRECTION('',(-0.81617259319427,0.577808184537517,0.));
#295=DIRECTION('',(0.,0.,-1.));
#296=DIRECTION('',(-1.,0.,0.));
#297=DIRECTION('',(0.,0.,1.));
#298=DIRECTION('',(1.,0.,0.));
#299=DIRECTION('',(0.,0.,-1.));
#300=DIRECTION('',(0.,0.,1.));
#301=DIRECTION('',(1.,0.,0.));
#302=DIRECTION('',(0.,0.,-1.));
#303=DIRECTION('',(-1.,0.,0.));
#304=DIRECTION('',(0.,0.,1.));
#305=DIRECTION('',(1.,0.,0.));
#306=DIRECTION('',(0.,0.,-1.));
#307=DIRECTION('',(0.,0.,1.));
#308=DIRECTION('',(1.,0.,0.));
#309=DIRECTION('',(0.,0.,-1.));
#310=DIRECTION('',(-1.,0.,0.));
#311=DIRECTION('',(0.,0.,1.));
#312=DIRECTION('',(1.,0.,0.));
#313=DIRECTION('',(0.,0.,-1.));
#314=DIRECTION('',(0.,0.,1.));
#315=DIRECTION('',(1.,0.,0.));
#316=DIRECTION('',(0.,0.,-1.));
#317=DIRECTION('',(0.,0.,-1.));
#318=DIRECTION('',(-1.,0.,0.));
#319=DIRECTION('',(0.,0.,1.));
#320=DIRECTION('',(1.,0.,0.));
#321=DIRECTION('',(0.,0.,-1.));
#322=DIRECTION('',(0.,0.,1.));
#323=DIRECTION('',(1.,0.,0.));
#324=DIRECTION('',(0.,0.,-1.));
#325=DIRECTION('',(-1.,0.,0.));
#326=DIRECTION('',(0.,0.,1.));
#327=DIRECTION('',(1.,0.,0.));
#328=DIRECTION('',(0.,0.,1.));
#329=DIRECTION('',(1.,0.,0.));
#330=DIRECTION('',(0.,0.,-1.));
#331=DIRECTION('',(-1.,0.,0.));
#332=DIRECTION('',(0.,0.,1.));
#333=DIRECTION('',(1.,0.,0.));
#334=DIRECTION('',(0.,0.,1.));
#335=DIRECTION('',(1.,0.,0.));
#336=DIRECTION('',(0.577808184537517,-0.81617259319427,0.));
#337=DIRECTION('',(0.81617259319427,0.577808184537517,0.));
#338=DIRECTION('',(-0.81617259319427,-0.577808184537517,0.));
#339=DIRECTION('',(-0.81617259319427,-0.577808184537517,0.));
#340=DIRECTION('',(0.,0.,-1.));
#341=DIRECTION('',(-1.,0.,0.));
#342=DIRECTION('',(0.,0.,1.));
#343=DIRECTION('',(1.,0.,0.));
#344=DIRECTION('',(0.,0.,1.));
#345=DIRECTION('',(1.,0.,0.));
#346=DIRECTION('',(0.,0.,1.));
#347=DIRECTION('',(1.,0.,0.));
#348=DIRECTION('',(0.,0.,1.));
#349=DIRECTION('',(1.,0.,0.));
#350=DIRECTION('',(0.,0.,1.));
#351=DIRECTION('',(1.,0.,0.));
#352=DIRECTION('',(0.,0.,1.));
#353=DIRECTION('',(1.,0.,0.));
#354=DIRECTION('',(0.,0.,1.));
#355=DIRECTION('',(1.,0.,0.));
#356=CARTESIAN_POINT('',(0.,0.,0.));
#357=CARTESIAN_POINT('',(1.83880688453541E-16,1.02348685082632E-16,0.00635));
#358=CARTESIAN_POINT('',(1.83880688453541E-16,1.02348685082632E-16,0.));
#359=CARTESIAN_POINT('',(0.0456077245076958,-0.0322879213519565,0.));
#360=CARTESIAN_POINT('',(0.0456077245076958,0.0322879213519565,0.));
#361=CARTESIAN_POINT('',(0.0456077245076958,-0.0322879213519565,0.00635));
#362=CARTESIAN_POINT('',(0.0456077245076958,-0.0322879213519565,0.00635));
#363=CARTESIAN_POINT('',(1.83880688453541E-16,1.02348685082632E-16,0.00635));
#364=CARTESIAN_POINT('',(0.0456077245076958,0.0322879213519565,0.00635));
#365=CARTESIAN_POINT('',(0.0456077245076958,0.0322879213519565,0.00635));
#366=CARTESIAN_POINT('',(0.048717342087766,-0.0344893705350444,0.00635));
#367=CARTESIAN_POINT('',(0.048717342087766,-0.0344893705350444,0.));
#368=CARTESIAN_POINT('',(0.0518269596678361,-0.0366908197181324,0.));
#369=CARTESIAN_POINT('',(0.0518269596678361,-0.0366908197181324,0.00635));
#370=CARTESIAN_POINT('',(0.0518269596678361,-0.0366908197181324,0.00635));
#371=CARTESIAN_POINT('',(0.048717342087766,-0.0344893705350444,0.00635));
#372=CARTESIAN_POINT('',(-2.77555756156289E-17,4.33680868994202E-19,0.00635));
#373=CARTESIAN_POINT('',(-2.77555756156289E-17,4.33680868994202E-19,0.));
#374=CARTESIAN_POINT('',(0.0631817022562704,-0.00635,0.));
#375=CARTESIAN_POINT('',(0.0631817022562704,-0.00635,0.00635));
#376=CARTESIAN_POINT('',(0.0631817022562704,-0.00635,0.00635));
#377=CARTESIAN_POINT('',(-2.77555756156289E-17,4.33680868994202E-19,0.00635));
#378=CARTESIAN_POINT('',(0.0318397157206562,0.0153130995012575,0.00635));
#379=CARTESIAN_POINT('',(0.0318397157206562,0.0153130995012575,0.));
#380=CARTESIAN_POINT('',(0.0697317370397059,0.0113375843954268,0.));
#381=CARTESIAN_POINT('',(0.0697317370397059,0.0113375843954268,0.00635));
#382=CARTESIAN_POINT('',(0.0697317370397059,0.0113375843954268,0.00635));
#383=CARTESIAN_POINT('',(0.0318397157206562,0.0153130995012575,0.00635));
#384=CARTESIAN_POINT('',(0.0492898643872234,0.0276144501603053,0.00635));
#385=CARTESIAN_POINT('',(0.0492898643872234,0.0276144501603053,0.00635));
#386=CARTESIAN_POINT('',(0.0631817022562704,0.00635,0.00635));
#387=CARTESIAN_POINT('',(0.0690286105751133,0.0116287722287925,0.00635));
#388=CARTESIAN_POINT('',(0.0690286105751133,0.0116287722287925,0.00635));
#389=CARTESIAN_POINT('',(0.0690286105751133,0.0116287722287925,0.));
#390=CARTESIAN_POINT('',(0.0492898643872234,0.0276144501603053,0.));
#391=CARTESIAN_POINT('',(0.0631817022562704,0.00635,0.));
#392=CARTESIAN_POINT('',(0.0631817022562704,0.00635,0.00635));
#393=CARTESIAN_POINT('',(-1.04083408558608E-17,1.30104260698261E-17,0.00635));
#394=CARTESIAN_POINT('',(-1.04083408558608E-17,1.30104260698261E-17,0.));
#395=CARTESIAN_POINT('',(0.0518269596678361,0.0366908197181324,0.));
#396=CARTESIAN_POINT('',(0.0518269596678361,0.0366908197181324,0.00635));
#397=CARTESIAN_POINT('',(0.0518269596678361,0.0366908197181324,0.00635));
#398=CARTESIAN_POINT('',(-1.04083408558608E-17,1.30104260698261E-17,0.00635));
#399=CARTESIAN_POINT('',(0.05969,-1.14925430283463E-17,0.00635));
#400=CARTESIAN_POINT('',(0.05969,-1.14925430283463E-17,0.00635));
#401=CARTESIAN_POINT('',(0.06139,-1.14925430283463E-17,0.00635));
#402=CARTESIAN_POINT('',(0.05969,-1.14925430283463E-17,0.));
#403=CARTESIAN_POINT('',(0.06139,-1.14925430283463E-17,0.));
#404=CARTESIAN_POINT('',(0.0516930563518931,-0.029845,0.00635));
#405=CARTESIAN_POINT('',(0.0516930563518931,-0.029845,0.00635));
#406=CARTESIAN_POINT('',(0.0533930563518931,-0.029845,0.00635));
#407=CARTESIAN_POINT('',(0.0516930563518931,-0.029845,0.));
#408=CARTESIAN_POINT('',(0.0533930563518931,-0.029845,0.));
#409=CARTESIAN_POINT('',(0.048717342087766,0.0344893705350444,0.00635));
#410=CARTESIAN_POINT('',(0.048717342087766,0.0344893705350444,0.));
#411=CARTESIAN_POINT('',(0.048717342087766,0.0344893705350444,0.00635));
#412=CARTESIAN_POINT('',(0.0516930563518932,0.029845,0.00635));
#413=CARTESIAN_POINT('',(0.0516930563518932,0.029845,0.00635));
#414=CARTESIAN_POINT('',(0.0533930563518932,0.029845,0.00635));
#415=CARTESIAN_POINT('',(0.0516930563518932,0.029845,0.));
#416=CARTESIAN_POINT('',(0.0533930563518932,0.029845,0.));
#417=CARTESIAN_POINT('',(0.,0.,0.00635));
#418=CARTESIAN_POINT('',(0.0693370284842991,0.0113789960111126,0.00635));
#419=CARTESIAN_POINT('',(0.,0.,0.));
#420=CARTESIAN_POINT('',(0.0693370284842991,0.0113789960111126,0.));
#421=CARTESIAN_POINT('',(0.0693370284842991,0.0113789960111126,0.00635));
#422=MECHANICAL_DESIGN_GEOMETRIC_PRESENTATION_REPRESENTATION('',(#237),
#423);
#423=(
GEOMETRIC_REPRESENTATION_CONTEXT(3)
GLOBAL_UNCERTAINTY_ASSIGNED_CONTEXT((#424))
GLOBAL_UNIT_ASSIGNED_CONTEXT((#427,#426,#425))
REPRESENTATION_CONTEXT('blade','TOP_LEVEL_ASSEMBLY_PART')
);
#424=UNCERTAINTY_MEASURE_WITH_UNIT(LENGTH_MEASURE(1.E-8),#427,
'DISTANCE_ACCURACY_VALUE','Maximum Tolerance applied to model');
#425=(
NAMED_UNIT(*)
SI_UNIT($,.STERADIAN.)
SOLID_ANGLE_UNIT()
);
#426=(
NAMED_UNIT(*)
PLANE_ANGLE_UNIT()
SI_UNIT($,.RADIAN.)
);
#427=(
LENGTH_UNIT()
NAMED_UNIT(*)
SI_UNIT($,.METRE.)
);
#428=PRODUCT_DEFINITION_SHAPE('','',#429);
#429=PRODUCT_DEFINITION('','',#431,#430);
#430=PRODUCT_DEFINITION_CONTEXT('',#437,'design');
#431=PRODUCT_DEFINITION_FORMATION_WITH_SPECIFIED_SOURCE('','',#433,
 .NOT_KNOWN.);
#432=PRODUCT_RELATED_PRODUCT_CATEGORY('','',(#433));
#433=PRODUCT('blade','blade','blade',(#435));
#434=PRODUCT_CATEGORY('','');
#435=PRODUCT_CONTEXT('',#437,'mechanical');
#436=APPLICATION_PROTOCOL_DEFINITION('international standard',
'ap242_managed_model_based_3d_engineering',2020,#437);
#437=APPLICATION_CONTEXT('managed model based 3d engineering');
ENDSEC;
END-ISO-10303-21;
